<svg width="9" height="9" viewBox="0 0 9 9" fill="none" xmlns="http://www.w3.org/2000/svg">
<path d="M8.49502 1.49502C8.83682 1.15322 8.83682 0.598145 8.49502 0.256348C8.15322 -0.0854492 7.59815 -0.0854492 7.25635 0.256348L4.37705 3.13838L1.49502 0.259082C1.15322 -0.0827149 0.598145 -0.0827149 0.256348 0.259082C-0.0854492 0.600879 -0.0854492 1.15596 0.256348 1.49775L3.13838 4.37705L0.259082 7.25908C-0.0827148 7.60088 -0.0827148 8.15596 0.259082 8.49776C0.600879 8.83955 1.15596 8.83955 1.49775 8.49776L4.37705 5.61572L7.25908 8.49502C7.60088 8.83682 8.15596 8.83682 8.49776 8.49502C8.83955 8.15322 8.83955 7.59815 8.49776 7.25635L5.61572 4.37705L8.49502 1.49502Z" fill="#111111"/>
</svg>
