<svg width="19" height="15" viewBox="0 0 19 15" fill="none" xmlns="http://www.w3.org/2000/svg">
<path d="M17.5617 7.71422C19.3273 5.9486 19.3273 3.08922 17.5617 1.3236C15.9992 -0.238901 13.5367 -0.442026 11.7398 0.842349L11.6898 0.876724C11.2398 1.1986 11.1367 1.8236 11.4586 2.27047C11.7805 2.71735 12.4055 2.8236 12.8523 2.50172L12.9023 2.46735C13.9055 1.75172 15.2773 1.86422 16.1461 2.7361C17.1305 3.72047 17.1305 5.31422 16.1461 6.2986L12.6398 9.8111C11.6555 10.7955 10.0617 10.7955 9.07734 9.8111C8.20547 8.93922 8.09297 7.56735 8.80859 6.56735L8.84297 6.51735C9.16484 6.06735 9.05859 5.44235 8.61172 5.1236C8.16484 4.80485 7.53672 4.90797 7.21797 5.35485L7.18359 5.40485C5.89609 7.1986 6.09922 9.6611 7.66172 11.2236C9.42734 12.9892 12.2867 12.9892 14.0523 11.2236L17.5617 7.71422ZM1.32422 6.98297C-0.441406 8.7486 -0.441406 11.608 1.32422 13.3736C2.88672 14.9361 5.34922 15.1392 7.14609 13.8548L7.19609 13.8205C7.64609 13.4986 7.74922 12.8736 7.42734 12.4267C7.10547 11.9798 6.48047 11.8736 6.03359 12.1955L5.98359 12.2298C4.98047 12.9455 3.60859 12.833 2.73984 11.9611C1.75547 10.9736 1.75547 9.37985 2.73984 8.39547L6.24609 4.8861C7.23047 3.90172 8.82422 3.90172 9.80859 4.8861C10.6805 5.75797 10.793 7.12985 10.0773 8.13297L10.043 8.18297C9.72109 8.63297 9.82734 9.25797 10.2742 9.57672C10.7211 9.89547 11.3492 9.79235 11.668 9.34547L11.7023 9.29547C12.9898 7.4986 12.7867 5.0361 11.2242 3.4736C9.45859 1.70797 6.59922 1.70797 4.83359 3.4736L1.32422 6.98297Z" fill="#B0B0B0"/>
</svg>
