<svg width="16" height="13" viewBox="0 0 16 13" fill="none" xmlns="http://www.w3.org/2000/svg">
<path d="M3.92668 0.284375C3.75989 0.103906 3.52746 0 3.28137 0C3.03528 0 2.80285 0.103906 2.63606 0.284375L0.229808 2.90937C-0.095583 3.26484 -0.0737081 3.81992 0.284495 4.14531C0.642698 4.4707 1.19504 4.44883 1.52043 4.09063L2.40637 3.12539V11.375C2.40637 11.859 2.79739 12.25 3.28137 12.25C3.76535 12.25 4.15637 11.859 4.15637 11.375V3.12539L5.04231 4.09336C5.3677 4.44883 5.92278 4.47344 6.27825 4.14805C6.63371 3.82266 6.65832 3.26758 6.33293 2.91211L3.92668 0.287109V0.284375ZM8.53137 0C8.04739 0 7.65637 0.391016 7.65637 0.875C7.65637 1.35898 8.04739 1.75 8.53137 1.75H9.40637C9.89035 1.75 10.2814 1.35898 10.2814 0.875C10.2814 0.391016 9.89035 0 9.40637 0H8.53137ZM8.53137 3.5C8.04739 3.5 7.65637 3.89102 7.65637 4.375C7.65637 4.85898 8.04739 5.25 8.53137 5.25H11.1564C11.6404 5.25 12.0314 4.85898 12.0314 4.375C12.0314 3.89102 11.6404 3.5 11.1564 3.5H8.53137ZM8.53137 7C8.04739 7 7.65637 7.39102 7.65637 7.875C7.65637 8.35898 8.04739 8.75 8.53137 8.75H12.9064C13.3904 8.75 13.7814 8.35898 13.7814 7.875C13.7814 7.39102 13.3904 7 12.9064 7H8.53137ZM8.53137 10.5C8.04739 10.5 7.65637 10.891 7.65637 11.375C7.65637 11.859 8.04739 12.25 8.53137 12.25H14.6564C15.1404 12.25 15.5314 11.859 15.5314 11.375C15.5314 10.891 15.1404 10.5 14.6564 10.5H8.53137Z" fill="#5A5A5A"/>
</svg>
