<svg width="12" height="12" viewBox="0 0 12 12" fill="none" xmlns="http://www.w3.org/2000/svg">
<path d="M6.375 0H9.28359C9.58125 0 9.86719 0.119531 10.0781 0.330469L11.6695 1.92188C11.8805 2.13281 12 2.41875 12 2.71641V7.875C12 8.49609 11.4961 9 10.875 9H6.375C5.75391 9 5.25 8.49609 5.25 7.875V1.125C5.25 0.503906 5.75391 0 6.375 0ZM1.125 3H4.5V4.5H1.5V10.5H6V9.75H7.5V10.875C7.5 11.4961 6.99609 12 6.375 12H1.125C0.503906 12 0 11.4961 0 10.875V4.125C0 3.50391 0.503906 3 1.125 3Z" fill="#5A5A5A"/>
</svg>
