<svg width="16" height="16" viewBox="0 0 16 16" fill="none" xmlns="http://www.w3.org/2000/svg">
<path d="M0 1.6875C0 0.755859 0.755859 0 1.6875 0H5.0625C5.99414 0 6.75 0.755859 6.75 1.6875V5.0625C6.75 5.99414 5.99414 6.75 5.0625 6.75H1.6875C0.755859 6.75 0 5.99414 0 5.0625V1.6875ZM2.25 2.25V4.5H4.5V2.25H2.25ZM0 10.6875C0 9.75586 0.755859 9 1.6875 9H5.0625C5.99414 9 6.75 9.75586 6.75 10.6875V14.0625C6.75 14.9941 5.99414 15.75 5.0625 15.75H1.6875C0.755859 15.75 0 14.9941 0 14.0625V10.6875ZM2.25 11.25V13.5H4.5V11.25H2.25ZM10.6875 0H14.0625C14.9941 0 15.75 0.755859 15.75 1.6875V5.0625C15.75 5.99414 14.9941 6.75 14.0625 6.75H10.6875C9.75586 6.75 9 5.99414 9 5.0625V1.6875C9 0.755859 9.75586 0 10.6875 0ZM13.5 2.25H11.25V4.5H13.5V2.25ZM9 9.5625C9 9.25313 9.25313 9 9.5625 9H11.8125C12.1219 9 12.375 9.25313 12.375 9.5625C12.375 9.87187 12.6281 10.125 12.9375 10.125H14.0625C14.3719 10.125 14.625 9.87187 14.625 9.5625C14.625 9.25313 14.8781 9 15.1875 9C15.4969 9 15.75 9.25313 15.75 9.5625V12.9375C15.75 13.2469 15.4969 13.5 15.1875 13.5H12.9375C12.6281 13.5 12.375 13.2469 12.375 12.9375C12.375 12.6281 12.1219 12.375 11.8125 12.375C11.5031 12.375 11.25 12.6281 11.25 12.9375V15.1875C11.25 15.4969 10.9969 15.75 10.6875 15.75H9.5625C9.25313 15.75 9 15.4969 9 15.1875V9.5625ZM12.9375 15.75C12.7883 15.75 12.6452 15.6907 12.5398 15.5852C12.4343 15.4798 12.375 15.3367 12.375 15.1875C12.375 15.0383 12.4343 14.8952 12.5398 14.7898C12.6452 14.6843 12.7883 14.625 12.9375 14.625C13.0867 14.625 13.2298 14.6843 13.3352 14.7898C13.4407 14.8952 13.5 15.0383 13.5 15.1875C13.5 15.3367 13.4407 15.4798 13.3352 15.5852C13.2298 15.6907 13.0867 15.75 12.9375 15.75ZM15.1875 15.75C15.0383 15.75 14.8952 15.6907 14.7898 15.5852C14.6843 15.4798 14.625 15.3367 14.625 15.1875C14.625 15.0383 14.6843 14.8952 14.7898 14.7898C14.8952 14.6843 15.0383 14.625 15.1875 14.625C15.3367 14.625 15.4798 14.6843 15.5852 14.7898C15.6907 14.8952 15.75 15.0383 15.75 15.1875C15.75 15.3367 15.6907 15.4798 15.5852 15.5852C15.4798 15.6907 15.3367 15.75 15.1875 15.75Z" fill="white"/>
</svg>
