<svg width="12" height="11" viewBox="0 0 12 11" fill="none" xmlns="http://www.w3.org/2000/svg">
<path d="M7.19531 0.0660972C6.92578 0.185628 6.75 0.45516 6.75 0.750472V2.25047H4.125C1.84688 2.25047 0 4.09735 0 6.37547C0 9.03094 1.91016 10.2169 2.34844 10.4559C2.40703 10.4888 2.47266 10.5005 2.53828 10.5005C2.79375 10.5005 3 10.2919 3 10.0388C3 9.86297 2.89922 9.70125 2.77031 9.58172C2.55 9.37313 2.25 8.96297 2.25 8.25047C2.25 7.00828 3.25781 6.00047 4.5 6.00047H6.75V7.50047C6.75 7.79578 6.92344 8.06532 7.19531 8.18485C7.46719 8.30438 7.78125 8.25516 8.00156 8.05828L11.7516 4.68328C11.9086 4.54032 12 4.33875 12 4.12547C12 3.91219 11.9109 3.71063 11.7516 3.56766L8.00156 0.19266C7.78125 -0.00655905 7.46484 -0.0557778 7.19531 0.0660972Z" fill="#5A5A5A"/>
</svg>
