<svg width="13" height="13" viewBox="0 0 13 13" fill="none" xmlns="http://www.w3.org/2000/svg">
<path d="M0 1.3125C0 0.587891 0.587891 0 1.3125 0H3.9375C4.66211 0 5.25 0.587891 5.25 1.3125V3.9375C5.25 4.66211 4.66211 5.25 3.9375 5.25H1.3125C0.587891 5.25 0 4.66211 0 3.9375V1.3125ZM1.75 1.75V3.5H3.5V1.75H1.75ZM0 8.3125C0 7.58789 0.587891 7 1.3125 7H3.9375C4.66211 7 5.25 7.58789 5.25 8.3125V10.9375C5.25 11.6621 4.66211 12.25 3.9375 12.25H1.3125C0.587891 12.25 0 11.6621 0 10.9375V8.3125ZM1.75 8.75V10.5H3.5V8.75H1.75ZM8.3125 0H10.9375C11.6621 0 12.25 0.587891 12.25 1.3125V3.9375C12.25 4.66211 11.6621 5.25 10.9375 5.25H8.3125C7.58789 5.25 7 4.66211 7 3.9375V1.3125C7 0.587891 7.58789 0 8.3125 0ZM10.5 1.75H8.75V3.5H10.5V1.75ZM7 7.4375C7 7.19688 7.19688 7 7.4375 7H9.1875C9.42813 7 9.625 7.19688 9.625 7.4375C9.625 7.67812 9.82187 7.875 10.0625 7.875H10.9375C11.1781 7.875 11.375 7.67812 11.375 7.4375C11.375 7.19688 11.5719 7 11.8125 7C12.0531 7 12.25 7.19688 12.25 7.4375V10.0625C12.25 10.3031 12.0531 10.5 11.8125 10.5H10.0625C9.82187 10.5 9.625 10.3031 9.625 10.0625C9.625 9.82187 9.42813 9.625 9.1875 9.625C8.94687 9.625 8.75 9.82187 8.75 10.0625V11.8125C8.75 12.0531 8.55313 12.25 8.3125 12.25H7.4375C7.19688 12.25 7 12.0531 7 11.8125V7.4375ZM10.0625 12.25C9.94647 12.25 9.83519 12.2039 9.75314 12.1219C9.67109 12.0398 9.625 11.9285 9.625 11.8125C9.625 11.6965 9.67109 11.5852 9.75314 11.5031C9.83519 11.4211 9.94647 11.375 10.0625 11.375C10.1785 11.375 10.2898 11.4211 10.3719 11.5031C10.4539 11.5852 10.5 11.6965 10.5 11.8125C10.5 11.9285 10.4539 12.0398 10.3719 12.1219C10.2898 12.2039 10.1785 12.25 10.0625 12.25ZM11.8125 12.25C11.6965 12.25 11.5852 12.2039 11.5031 12.1219C11.4211 12.0398 11.375 11.9285 11.375 11.8125C11.375 11.6965 11.4211 11.5852 11.5031 11.5031C11.5852 11.4211 11.6965 11.375 11.8125 11.375C11.9285 11.375 12.0398 11.4211 12.1219 11.5031C12.2039 11.5852 12.25 11.6965 12.25 11.8125C12.25 11.9285 12.2039 12.0398 12.1219 12.1219C12.0398 12.2039 11.9285 12.25 11.8125 12.25Z" fill="white"/>
</svg>
