<svg width="12" height="12" viewBox="0 0 12 12" fill="none" xmlns="http://www.w3.org/2000/svg">
<path d="M10.9222 1.92217C11.3616 1.48271 11.3616 0.769043 10.9222 0.32959C10.4827 -0.109863 9.76904 -0.109863 9.32959 0.32959L5.62764 4.03506L1.92217 0.333105C1.48271 -0.106348 0.769043 -0.106348 0.32959 0.333105C-0.109863 0.772559 -0.109863 1.48623 0.32959 1.92568L4.03506 5.62764L0.333106 9.33311C-0.106348 9.77256 -0.106348 10.4862 0.333106 10.9257C0.772559 11.3651 1.48623 11.3651 1.92568 10.9257L5.62764 7.22021L9.33311 10.9222C9.77256 11.3616 10.4862 11.3616 10.9257 10.9222C11.3651 10.4827 11.3651 9.76904 10.9257 9.32959L7.22021 5.62764L10.9222 1.92217Z" fill="#5A5A5A"/>
</svg>
