<svg width="166" height="165" viewBox="0 0 166 165" fill="none" xmlns="http://www.w3.org/2000/svg">
<path d="M51.3566 7.80766C51.3566 3.49561 47.861 0 43.5489 0H7.80766C3.49561 0 0 3.49561 0 7.80766V43.5489C0 47.861 3.49561 51.3566 7.80766 51.3566H43.5489C47.861 51.3566 51.3566 47.861 51.3566 43.5489V7.80766ZM41.0863 33.2773C41.0863 37.5894 37.5907 41.085 33.2787 41.085H18.0806C13.7685 41.085 10.2729 37.5894 10.2729 33.2773V18.0792C10.2729 13.7672 13.7685 10.2716 18.0806 10.2716H33.2787C37.5907 10.2716 41.0863 13.7672 41.0863 18.0792V33.2773Z" fill="#7ACBFF"/>
<path d="M19.4028 26.2493C19.4028 29.4007 21.9575 31.9553 25.1089 31.9553C28.2603 31.9553 30.815 29.4007 30.815 26.2493C30.815 23.0979 28.2603 20.5432 25.1089 20.5432C21.9575 20.5432 19.4028 23.0979 19.4028 26.2493Z" fill="#7ACBFF"/>
<path d="M164.34 7.80766C164.34 3.49561 160.844 0 156.532 0H120.791C116.479 0 112.983 3.49561 112.983 7.80766V43.5489C112.983 47.861 116.479 51.3566 120.791 51.3566H156.532C160.844 51.3566 164.34 47.861 164.34 43.5489V7.80766ZM154.07 33.2773C154.07 37.5894 150.574 41.085 146.262 41.085H131.064C126.752 41.085 123.256 37.5894 123.256 33.2773V18.0792C123.256 13.7672 126.752 10.2716 131.064 10.2716H146.262C150.574 10.2716 154.07 13.7672 154.07 18.0792V33.2773Z" fill="#7ACBFF"/>
<path d="M132.386 26.2493C132.386 29.4007 134.941 31.9553 138.092 31.9553C141.243 31.9553 143.798 29.4007 143.798 26.2493C143.798 23.0979 141.243 20.5432 138.092 20.5432C134.941 20.5432 132.386 23.0979 132.386 26.2493Z" fill="#7ACBFF"/>
<path d="M0.00146484 156.532C0.00146484 160.844 3.49707 164.34 7.80912 164.34H43.5504C47.8624 164.34 51.3581 160.845 51.3581 156.532V120.791C51.3581 116.479 47.8624 112.984 43.5504 112.984H7.80912C3.49707 112.984 0.00146484 116.479 0.00146484 120.791V156.532ZM10.273 131.063C10.273 126.751 13.7686 123.255 18.0807 123.255H33.2788C37.5908 123.255 41.0865 126.751 41.0865 131.063V146.261C41.0865 150.573 37.5908 154.069 33.2788 154.069H18.0807C13.7686 154.069 10.273 150.573 10.273 146.261V131.063Z" fill="#7ACBFF"/>
<path d="M19.4028 139.233C19.4028 142.384 21.9575 144.939 25.1089 144.939C28.2603 144.939 30.815 142.384 30.815 139.233C30.815 136.081 28.2603 133.526 25.1089 133.526C21.9575 133.526 19.4028 136.081 19.4028 139.233Z" fill="#7ACBFF"/>
<path d="M82.1713 46.7917C82.1713 44.2706 84.2151 42.2269 86.7362 42.2269H87.3065C90.1425 42.2269 92.4416 39.9278 92.4416 37.0917V35.9486C92.4416 33.1125 90.1425 30.8134 87.3065 30.8134C84.4704 30.8134 82.1713 28.5143 82.1713 25.6783V15.4073C82.1713 12.5709 79.872 10.2716 77.0356 10.2716C74.1991 10.2716 71.8998 7.9722 71.8998 5.13578C71.8998 2.29937 69.6004 0 66.764 0C63.9276 0 61.6282 2.29938 61.6282 5.1358V15.4074C61.6282 18.2438 63.9279 20.5432 66.7643 20.5432C69.6004 20.5432 71.8998 22.8422 71.8998 25.6783C71.8998 28.5143 69.6004 30.8134 66.7643 30.8134C63.9279 30.8134 61.6282 33.1128 61.6282 35.9492V37.0911C61.6282 39.9275 63.9276 42.2269 66.764 42.2269H67.3349C69.856 42.2269 71.8998 44.2706 71.8998 46.7917C71.8998 49.3128 73.9435 51.3566 76.4646 51.3566H77.6065C80.1276 51.3566 82.1713 49.3128 82.1713 46.7917Z" fill="#7ACBFF"/>
<path d="M66.764 71.8983C69.6004 71.8983 71.8998 69.5989 71.8998 66.7625V56.4923C71.8998 53.6558 69.6001 51.3564 66.7637 51.3564C63.9276 51.3564 61.6282 53.6555 61.6282 56.4916C61.6282 59.3276 59.3291 61.6267 56.4931 61.6267H43.1873C38.8753 61.6267 35.3797 65.1223 35.3797 69.4343V74.7516C35.3797 78.8486 32.0584 82.1698 27.9614 82.1698H25.679C22.8426 82.1698 20.5432 84.4692 20.5432 87.3056C20.5432 90.1421 22.8426 92.4414 25.679 92.4414H45.0803C47.9167 92.4414 50.2161 90.1421 50.2161 87.3056C50.2161 84.4692 52.5155 82.1698 55.3519 82.1698H56.4924C59.3288 82.1698 61.6282 79.8705 61.6282 77.034C61.6282 74.1976 63.9276 71.8983 66.764 71.8983Z" fill="#7ACBFF"/>
<path d="M25.6803 61.6267H15.4088C12.5723 61.6267 10.2729 63.9261 10.2729 66.7625C10.2729 69.5989 12.5723 71.8983 15.4088 71.8983H25.6803C28.5167 71.8983 30.8161 69.5989 30.8161 66.7625C30.8161 63.9261 28.5167 61.6267 25.6803 61.6267Z" fill="#7ACBFF"/>
<path d="M14.2676 102.712C17.1037 102.712 19.4028 100.413 19.4028 97.5767V97.0065C19.4028 94.4854 17.359 92.4416 14.8379 92.4416C12.3168 92.4416 10.273 90.3978 10.273 87.8767V77.0342C10.273 74.1978 7.97366 71.8984 5.13725 71.8984C2.30083 71.8984 0.00146484 74.1978 0.00146484 77.0342V92.4416V94.9042C0.00146484 99.2163 3.49707 102.712 7.80912 102.712H10.273H14.2676Z" fill="#7ACBFF"/>
<path d="M61.6282 118.119C61.6282 120.956 63.9276 123.255 66.764 123.255C69.6004 123.255 71.8998 120.956 71.8998 118.119C71.8998 115.283 69.6004 112.984 66.764 112.984C63.9276 112.984 61.6282 115.283 61.6282 118.119Z" fill="#7ACBFF"/>
<path d="M138.662 82.17C135.826 82.17 133.527 79.8706 133.527 77.0342C133.527 74.1978 131.227 71.8984 128.391 71.8984C125.554 71.8984 123.255 74.1978 123.255 77.0342V82.17V84.6339C123.255 88.946 119.759 92.4416 115.447 92.4416H107.848C105.012 92.4416 102.713 94.7407 102.713 97.5767C102.713 100.413 105.012 102.712 107.848 102.712H123.255H128.391C131.227 102.712 133.527 100.413 133.527 97.5767C133.527 94.7407 135.826 92.4416 138.662 92.4416C141.498 92.4416 143.798 90.1422 143.798 87.3058C143.798 84.4694 141.499 82.17 138.662 82.17Z" fill="#7ACBFF"/>
<path d="M61.6283 87.3057C61.6283 90.1421 59.3286 92.4415 56.4921 92.4415C53.6561 92.4415 51.3567 94.7406 51.3567 97.5767C51.3567 100.413 53.6558 102.712 56.4918 102.712H82.7417C85.5778 102.712 87.8768 100.413 87.8768 97.5767V95.2942C87.8768 93.7187 86.5996 92.4415 85.0241 92.4415C83.4486 92.4415 82.1714 91.1643 82.1714 89.5888V87.3057C82.1714 84.4693 79.872 82.1699 77.0356 82.1699H66.7641C63.9276 82.1699 61.6283 84.4693 61.6283 87.3057Z" fill="#7ACBFF"/>
<path d="M159.776 61.6267C156.625 61.6267 154.07 64.1814 154.07 67.3328V87.3057C154.07 90.1421 151.77 92.4415 148.934 92.4415C146.098 92.4415 143.798 94.7406 143.798 97.5766C143.798 100.413 146.097 102.712 148.933 102.712H154.07H157.674C161.986 102.712 165.482 99.2161 165.482 94.9041V92.4415V67.3328C165.482 64.1814 162.927 61.6267 159.776 61.6267Z" fill="#7ACBFF"/>
<path d="M92.4416 118.12C92.4416 120.956 90.1425 123.255 87.3065 123.255C84.4704 123.255 82.1713 125.555 82.1713 128.391C82.1713 131.227 84.4704 133.527 87.3065 133.527C90.1425 133.527 92.4416 135.826 92.4416 138.662V143.797V148.933C92.4416 151.769 90.1425 154.068 87.3065 154.068C84.4704 154.068 82.1713 151.769 82.1713 148.933V143.797V141.334C82.1713 137.022 78.6757 133.527 74.3637 133.527H66.7633C63.9273 133.527 61.6282 135.826 61.6282 138.662C61.6282 141.498 63.9276 143.797 66.7636 143.797C69.6001 143.797 71.8998 146.096 71.8998 148.933C71.8998 151.769 69.6004 154.068 66.764 154.068C63.9276 154.068 61.6282 156.368 61.6282 159.204C61.6282 162.041 63.9276 164.34 66.764 164.34H138.662C141.499 164.34 143.798 162.041 143.798 159.204C143.798 156.368 141.499 154.068 138.662 154.068C135.826 154.068 133.527 151.769 133.527 148.933C133.527 146.096 135.826 143.797 138.662 143.797C141.499 143.797 143.798 146.096 143.798 148.933C143.798 151.769 146.098 154.068 148.934 154.068C151.77 154.068 154.07 156.368 154.07 159.204C154.07 162.041 156.369 164.34 159.206 164.34H159.776C162.927 164.34 165.482 161.785 165.482 158.634V143.797V133.527V127.819C165.482 124.668 162.927 122.113 159.776 122.113H158.635C156.114 122.113 154.07 120.069 154.07 117.548C154.07 115.027 152.026 112.983 149.505 112.983H148.934C146.098 112.983 143.798 115.283 143.798 118.119C143.798 120.956 146.098 123.255 148.934 123.255C151.77 123.255 154.07 125.554 154.07 128.391C154.07 131.227 151.77 133.527 148.934 133.527H141.334C137.022 133.527 133.527 130.031 133.527 125.719V118.689C133.527 115.538 130.972 112.983 127.821 112.983C124.669 112.983 122.114 115.538 122.114 118.689V146.261C122.114 150.573 118.619 154.068 114.307 154.068H107.849C105.013 154.068 102.713 151.769 102.713 148.933C102.713 146.096 105.013 143.797 107.849 143.797C110.685 143.797 112.985 141.498 112.985 138.662C112.985 135.826 110.685 133.527 107.849 133.527C105.013 133.527 102.713 131.227 102.713 128.391C102.713 125.554 105.013 123.255 107.849 123.255C110.685 123.255 112.985 120.956 112.985 118.119C112.985 115.283 110.685 112.983 107.849 112.983C105.013 112.983 102.713 110.684 102.713 107.848C102.713 105.011 100.414 102.712 97.5774 102.712C94.741 102.712 92.4416 105.011 92.4416 107.848V118.12Z" fill="#7ACBFF"/>
<path d="M103.855 61.6282C103.855 58.4765 101.3 55.9215 98.1484 55.9215C94.9966 55.9215 92.4416 58.4765 92.4416 61.6282V66.7634C92.4416 69.5994 90.1426 71.8985 87.3065 71.8985C84.4705 71.8985 82.1714 74.1982 82.1714 77.0343C82.1714 79.8703 84.4705 82.17 87.3065 82.17H89.5889C91.1644 82.17 92.4416 83.4473 92.4416 85.0228C92.4416 86.5983 93.7188 87.8755 95.2944 87.8755H101.002C102.578 87.8755 103.855 86.5983 103.855 85.0228C103.855 83.4473 105.132 82.17 106.708 82.17H108.42C110.941 82.17 112.985 80.1263 112.985 77.6052V76.4633C112.985 73.9422 110.941 71.8985 108.42 71.8985C105.899 71.8985 103.855 69.8547 103.855 67.3336V61.6282Z" fill="#7ACBFF"/>
<path d="M133.527 66.7625C133.527 69.5989 135.826 71.8983 138.662 71.8983C141.499 71.8983 143.798 69.5989 143.798 66.7625C143.798 63.9261 141.499 61.6267 138.662 61.6267C135.826 61.6267 133.527 63.9261 133.527 66.7625Z" fill="#7ACBFF"/>
<path d="M112.985 66.7625C112.985 69.5989 115.284 71.8983 118.121 71.8983C120.957 71.8983 123.256 69.5989 123.256 66.7625C123.256 63.9261 120.957 61.6267 118.121 61.6267C115.284 61.6267 112.985 63.9261 112.985 66.7625Z" fill="#7ACBFF"/>
<path d="M102.713 25.6775V15.4073C102.713 12.5709 100.414 10.2715 97.5775 10.2715C94.741 10.2715 92.4417 12.5709 92.4417 15.4073V25.6775C92.4417 28.514 94.741 30.8133 97.5775 30.8133C100.414 30.8133 102.713 28.514 102.713 25.6775Z" fill="#7ACBFF"/>
<path d="M82.1714 5.13578C82.1714 7.9722 84.4708 10.2716 87.3072 10.2716C90.1436 10.2716 92.443 7.9722 92.443 5.13578C92.443 2.29937 90.1436 0 87.3072 0C84.4708 0 82.1714 2.29937 82.1714 5.13578Z" fill="#7ACBFF"/>
</svg>
