<svg width="153" height="153" viewBox="0 0 153 153" fill="none" xmlns="http://www.w3.org/2000/svg">
<g filter="url(#filter0_ddd_8_672)">
<path d="M22.682 29.035C22.682 22.4992 27.9803 17.2009 34.5161 17.2009H117.848C124.384 17.2009 129.682 22.4992 129.682 29.035V112.367C129.682 118.903 124.384 124.201 117.848 124.201H34.5161C27.9803 124.201 22.682 118.903 22.682 112.367V29.035Z" fill="white"/>
<path d="M61.043 34.3641C61.043 32.2379 59.3194 30.5143 57.1932 30.5143H39.5696C37.4434 30.5143 35.7197 32.2379 35.7197 34.3641V51.9877C35.7197 54.1139 37.4434 55.8376 39.5696 55.8376H57.1932C59.3194 55.8376 61.043 54.1139 61.043 51.9877V34.3641ZM55.9789 46.9229C55.9789 49.0491 54.2552 50.7728 52.129 50.7728H44.635C42.5088 50.7728 40.7852 49.0491 40.7852 46.9229V39.4289C40.7852 37.3027 42.5088 35.5791 44.635 35.5791H52.129C54.2552 35.5791 55.9789 37.3027 55.9789 39.4289V46.9229Z" fill="#7ACBFF"/>
<path d="M45.287 43.4575C45.287 45.0114 46.5467 46.2711 48.1006 46.2711C49.6545 46.2711 50.9142 45.0114 50.9142 43.4575C50.9142 41.9036 49.6545 40.6439 48.1006 40.6439C46.5467 40.6439 45.287 41.9036 45.287 43.4575Z" fill="#7ACBFF"/>
<path d="M116.754 34.3641C116.754 32.2379 115.03 30.5143 112.904 30.5143H95.2803C93.1541 30.5143 91.4304 32.2379 91.4304 34.3641V51.9877C91.4304 54.1139 93.1541 55.8376 95.2803 55.8376H112.904C115.03 55.8376 116.754 54.1139 116.754 51.9877V34.3641ZM111.69 46.9229C111.69 49.0491 109.966 50.7728 107.84 50.7728H100.346C98.2195 50.7728 96.4959 49.0491 96.4959 46.9229V39.4289C96.4959 37.3027 98.2195 35.5791 100.346 35.5791H107.84C109.966 35.5791 111.69 37.3027 111.69 39.4289V46.9229Z" fill="#7ACBFF"/>
<path d="M100.998 43.4575C100.998 45.0114 102.257 46.2711 103.811 46.2711C105.365 46.2711 106.625 45.0114 106.625 43.4575C106.625 41.9036 105.365 40.6439 103.811 40.6439C102.257 40.6439 100.998 41.9036 100.998 43.4575Z" fill="#7ACBFF"/>
<path d="M35.7203 107.699C35.7203 109.825 37.444 111.548 39.5702 111.548H57.1938C59.32 111.548 61.0436 109.825 61.0436 107.699V90.075C61.0436 87.9487 59.32 86.2251 57.1938 86.2251H39.5702C37.444 86.2251 35.7203 87.9487 35.7203 90.075V107.699ZM40.7851 95.1398C40.7851 93.0135 42.5088 91.2899 44.635 91.2899H52.129C54.2552 91.2899 55.9788 93.0135 55.9788 95.1398V102.634C55.9788 104.76 54.2552 106.484 52.129 106.484H44.635C42.5088 106.484 40.7851 104.76 40.7851 102.634V95.1398Z" fill="#7ACBFF"/>
<path d="M45.287 99.1681C45.287 100.722 46.5467 101.982 48.1006 101.982C49.6545 101.982 50.9142 100.722 50.9142 99.1681C50.9142 97.6142 49.6545 96.3545 48.1006 96.3545C46.5467 96.3545 45.287 97.6142 45.287 99.1681Z" fill="#7ACBFF"/>
<path d="M76.2374 53.5867C76.2374 52.3436 77.2451 51.3358 78.4882 51.3358H78.7694C80.1679 51.3358 81.3015 50.2022 81.3015 48.8038V48.2401C81.3015 46.8416 80.1679 45.708 78.7694 45.708C77.371 45.708 76.2374 44.5744 76.2374 43.1759V38.1115C76.2374 36.7129 75.1036 35.5791 73.705 35.5791C72.3064 35.5791 71.1726 34.4453 71.1726 33.0467C71.1726 31.6481 70.0388 30.5143 68.6402 30.5143C67.2416 30.5143 66.1078 31.6481 66.1078 33.0467V38.1115C66.1078 39.5101 67.2417 40.6439 68.6404 40.6439C70.0388 40.6439 71.1726 41.7775 71.1726 43.1759C71.1726 44.5744 70.0388 45.708 68.6404 45.708C67.2417 45.708 66.1078 46.8418 66.1078 48.2404V48.8034C66.1078 50.202 67.2416 51.3358 68.6402 51.3358H68.9217C70.1648 51.3358 71.1726 52.3436 71.1726 53.5867C71.1726 54.8298 72.1803 55.8376 73.4235 55.8376H73.9865C75.2296 55.8376 76.2374 54.8298 76.2374 53.5867Z" fill="#7ACBFF"/>
<path d="M68.6403 65.9664C70.0389 65.9664 71.1727 64.8326 71.1727 63.434V58.3699C71.1727 56.9713 70.0387 55.8375 68.6401 55.8375C67.2417 55.8375 66.1079 56.9712 66.1079 58.3696C66.1079 59.768 64.9742 60.9016 63.5758 60.9016H57.0149C54.8887 60.9016 53.165 62.6253 53.165 64.7515V67.3734C53.165 69.3936 51.5274 71.0312 49.5072 71.0312H48.3818C46.9832 71.0312 45.8494 72.165 45.8494 73.5636C45.8494 74.9622 46.9832 76.096 48.3818 76.096H57.9483C59.3469 76.096 60.4807 74.9622 60.4807 73.5636C60.4807 72.165 61.6145 71.0312 63.0131 71.0312H63.5755C64.9741 71.0312 66.1079 69.8974 66.1079 68.4988C66.1079 67.1002 67.2417 65.9664 68.6403 65.9664Z" fill="#7ACBFF"/>
<path d="M48.3823 60.9016H43.3176C41.919 60.9016 40.7852 62.0354 40.7852 63.434C40.7852 64.8326 41.919 65.9664 43.3176 65.9664H48.3823C49.7809 65.9664 50.9147 64.8326 50.9147 63.434C50.9147 62.0354 49.7809 60.9016 48.3823 60.9016Z" fill="#7ACBFF"/>
<path d="M42.7548 81.1603C44.1532 81.1603 45.2869 80.0266 45.2869 78.6282V78.347C45.2869 77.1039 44.2791 76.0961 43.036 76.0961C41.7929 76.0961 40.7851 75.0884 40.7851 73.8453V68.4989C40.7851 67.1003 39.6513 65.9666 38.2527 65.9666C36.8541 65.9666 35.7203 67.1003 35.7203 68.4989V76.0961V77.3104C35.7203 79.4366 37.444 81.1603 39.5702 81.1603H40.7851H42.7548Z" fill="#7ACBFF"/>
<path d="M66.1078 88.7575C66.1078 90.1561 67.2416 91.2899 68.6402 91.2899C70.0388 91.2899 71.1726 90.1561 71.1726 88.7575C71.1726 87.3589 70.0388 86.2251 68.6402 86.2251C67.2416 86.2251 66.1078 87.3589 66.1078 88.7575Z" fill="#7ACBFF"/>
<path d="M104.092 71.0313C102.694 71.0313 101.56 69.8975 101.56 68.4989C101.56 67.1003 100.426 65.9666 99.0276 65.9666C97.629 65.9666 96.4953 67.1003 96.4953 68.4989V71.0313V72.2463C96.4953 74.3725 94.7716 76.0961 92.6454 76.0961H88.8984C87.5 76.0961 86.3663 77.2298 86.3663 78.6282C86.3663 80.0266 87.5 81.1603 88.8984 81.1603H96.4953H99.028C100.426 81.1603 101.56 80.0266 101.56 78.6282C101.56 77.2298 102.694 76.0961 104.092 76.0961C105.491 76.0961 106.625 74.9623 106.625 73.5637C106.625 72.1651 105.491 71.0313 104.092 71.0313Z" fill="#7ACBFF"/>
<path d="M66.1079 73.5637C66.1079 74.9623 64.9739 76.096 63.5753 76.096C62.1769 76.096 61.0431 77.2297 61.0431 78.6281C61.0431 80.0265 62.1767 81.1602 63.5752 81.1602H76.5187C77.9171 81.1602 79.0507 80.0265 79.0507 78.6281V77.5027C79.0507 76.7258 78.4209 76.096 77.6441 76.096C76.8672 76.096 76.2375 75.4663 76.2375 74.6894V73.5636C76.2375 72.165 75.1037 71.0312 73.7051 71.0312H68.6403C67.2417 71.0312 66.1079 72.165 66.1079 73.5637Z" fill="#7ACBFF"/>
<path d="M114.503 60.9016C112.949 60.9016 111.69 62.1613 111.69 63.7152V73.5636C111.69 74.9622 110.556 76.096 109.157 76.096C107.759 76.096 106.625 77.2296 106.625 78.6281C106.625 80.0265 107.759 81.1601 109.157 81.1601H111.69H113.467C115.593 81.1601 117.317 79.4365 117.317 77.3103V76.096V63.7152C117.317 62.1613 116.057 60.9016 114.503 60.9016Z" fill="#7ACBFF"/>
<path d="M81.3015 88.7577C81.3015 90.1561 80.1679 91.2897 78.7694 91.2897C77.371 91.2897 76.2374 92.4237 76.2374 93.8221C76.2374 95.2205 77.371 96.3545 78.7694 96.3545C80.1679 96.3545 81.3015 97.4882 81.3015 98.8866V101.419V103.951C81.3015 105.35 80.1679 106.483 78.7694 106.483C77.371 106.483 76.2374 105.35 76.2374 103.951V101.419V100.204C76.2374 98.0782 74.5137 96.3545 72.3875 96.3545H68.6399C67.2414 96.3545 66.1078 97.4882 66.1078 98.8866C66.1078 100.285 67.2416 101.419 68.64 101.419C70.0386 101.419 71.1726 102.552 71.1726 103.951C71.1726 105.35 70.0388 106.483 68.6402 106.483C67.2416 106.483 66.1078 107.617 66.1078 109.016C66.1078 110.414 67.2416 111.548 68.6402 111.548H104.092C105.491 111.548 106.625 110.414 106.625 109.016C106.625 107.617 105.491 106.483 104.092 106.483C102.694 106.483 101.56 105.35 101.56 103.951C101.56 102.552 102.694 101.419 104.092 101.419C105.491 101.419 106.625 102.552 106.625 103.951C106.625 105.35 107.759 106.483 109.157 106.483C110.556 106.483 111.69 107.617 111.69 109.016C111.69 110.414 112.823 111.548 114.222 111.548H114.503C116.057 111.548 117.317 110.289 117.317 108.735V101.419V96.3545V93.5403C117.317 91.9864 116.057 90.7267 114.503 90.7267H113.94C112.697 90.7267 111.69 89.7189 111.69 88.4758C111.69 87.2327 110.682 86.2249 109.439 86.2249H109.157C107.759 86.2249 106.625 87.3587 106.625 88.7573C106.625 90.1559 107.759 91.2897 109.157 91.2897C110.556 91.2897 111.69 92.4235 111.69 93.8221C111.69 95.2207 110.556 96.3545 109.157 96.3545H105.41C103.284 96.3545 101.56 94.6309 101.56 92.5047V89.0385C101.56 87.4846 100.3 86.2249 98.7464 86.2249C97.1925 86.2249 95.9328 87.4846 95.9328 89.0385V102.634C95.9328 104.76 94.2092 106.483 92.083 106.483H88.8987C87.5001 106.483 86.3663 105.35 86.3663 103.951C86.3663 102.552 87.5003 101.419 88.8989 101.419C90.2973 101.419 91.4311 100.285 91.4311 98.8866C91.4311 97.4882 90.2973 96.3545 88.8989 96.3545C87.5003 96.3545 86.3663 95.2207 86.3663 93.8221C86.3663 92.4235 87.5001 91.2897 88.8987 91.2897C90.2973 91.2897 91.4311 90.1559 91.4311 88.7573C91.4311 87.3587 90.2973 86.2249 88.8987 86.2249C87.5001 86.2249 86.3663 85.0911 86.3663 83.6925C86.3663 82.2939 85.2325 81.1602 83.8339 81.1602C82.4353 81.1602 81.3015 82.294 81.3015 83.6926V88.7577Z" fill="#7ACBFF"/>
<path d="M86.9293 60.9024C86.9293 59.3483 85.6694 58.0885 84.1154 58.0885C82.5613 58.0885 81.3014 59.3483 81.3014 60.9024V63.4345C81.3014 64.8329 80.1678 65.9666 78.7694 65.9666C77.371 65.9666 76.2373 67.1005 76.2373 68.4989C76.2373 69.8974 77.371 71.0313 78.7694 71.0313H79.8948C80.6717 71.0313 81.3014 71.6611 81.3014 72.438C81.3014 73.2148 81.9312 73.8446 82.7081 73.8446H85.5226C86.2995 73.8446 86.9293 73.2148 86.9293 72.438C86.9293 71.6611 87.5591 71.0313 88.3359 71.0313H89.1802C90.4233 71.0313 91.431 70.0236 91.431 68.7805V68.2174C91.431 66.9743 90.4233 65.9666 89.1802 65.9666C87.937 65.9666 86.9293 64.9588 86.9293 63.7157V60.9024Z" fill="#7ACBFF"/>
<path d="M101.56 63.434C101.56 64.8326 102.694 65.9664 104.092 65.9664C105.491 65.9664 106.625 64.8326 106.625 63.434C106.625 62.0354 105.491 60.9016 104.092 60.9016C102.694 60.9016 101.56 62.0354 101.56 63.434Z" fill="#7ACBFF"/>
<path d="M91.431 63.434C91.431 64.8326 92.5648 65.9664 93.9634 65.9664C95.362 65.9664 96.4958 64.8326 96.4958 63.434C96.4958 62.0354 95.362 60.9016 93.9634 60.9016C92.5648 60.9016 91.431 62.0354 91.431 63.434Z" fill="#7ACBFF"/>
<path d="M86.3664 43.1755V38.1114C86.3664 36.7128 85.2326 35.579 83.834 35.579C82.4354 35.579 81.3016 36.7128 81.3016 38.1114V43.1755C81.3016 44.5741 82.4354 45.7079 83.834 45.7079C85.2326 45.7079 86.3664 44.5741 86.3664 43.1755Z" fill="#7ACBFF"/>
<path d="M76.2373 33.0467C76.2373 34.4453 77.3711 35.5791 78.7697 35.5791C80.1683 35.5791 81.3021 34.4453 81.3021 33.0467C81.3021 31.6481 80.1683 30.5143 78.7697 30.5143C77.3711 30.5143 76.2373 31.6481 76.2373 33.0467Z" fill="#7ACBFF"/>
</g>
<defs>
<filter id="filter0_ddd_8_672" x="-2.09808e-05" y="1.14441e-05" width="152.364" height="152.553" filterUnits="userSpaceOnUse" color-interpolation-filters="sRGB">
<feFlood flood-opacity="0" result="BackgroundImageFix"/>
<feColorMatrix in="SourceAlpha" type="matrix" values="0 0 0 0 0 0 0 0 0 0 0 0 0 0 0 0 0 0 127 0" result="hardAlpha"/>
<feOffset/>
<feGaussianBlur stdDeviation="7.8894"/>
<feColorMatrix type="matrix" values="0 0 0 0 0.478431 0 0 0 0 0.796078 0 0 0 0 1 0 0 0 0.15 0"/>
<feBlend mode="normal" in2="BackgroundImageFix" result="effect1_dropShadow_8_672"/>
<feColorMatrix in="SourceAlpha" type="matrix" values="0 0 0 0 0 0 0 0 0 0 0 0 0 0 0 0 0 0 127 0" result="hardAlpha"/>
<feOffset dy="5.67051"/>
<feGaussianBlur stdDeviation="11.341"/>
<feColorMatrix type="matrix" values="0 0 0 0 0 0 0 0 0 0 0 0 0 0 0 0 0 0 0.06 0"/>
<feBlend mode="normal" in2="effect1_dropShadow_8_672" result="effect2_dropShadow_8_672"/>
<feColorMatrix in="SourceAlpha" type="matrix" values="0 0 0 0 0 0 0 0 0 0 0 0 0 0 0 0 0 0 127 0" result="hardAlpha"/>
<feOffset/>
<feGaussianBlur stdDeviation="8.60046"/>
<feColorMatrix type="matrix" values="0 0 0 0 0.478431 0 0 0 0 0.796078 0 0 0 0 1 0 0 0 0.45 0"/>
<feBlend mode="normal" in2="effect2_dropShadow_8_672" result="effect3_dropShadow_8_672"/>
<feBlend mode="normal" in="SourceGraphic" in2="effect3_dropShadow_8_672" result="shape"/>
</filter>
</defs>
</svg>
