<svg width="10" height="12" viewBox="0 0 10 12" fill="none" xmlns="http://www.w3.org/2000/svg">
<path fill-rule="evenodd" clip-rule="evenodd" d="M3.53158 0C3.10603 0 2.76106 0.344975 2.76106 0.770525C2.76106 0.983301 2.58857 1.15579 2.37579 1.15579H2.31158H0.577896C0.258735 1.15579 0 1.41453 0 1.73369C0 2.05285 0.258735 2.31158 0.577896 2.31158H2.31158H2.37579H6.86962H6.87054H6.93475H8.66843C8.98761 2.31158 9.24633 2.05285 9.24633 1.73369C9.24633 1.41453 8.98761 1.15579 8.66843 1.15579H6.87008C6.65753 1.15554 6.48526 0.983151 6.48526 0.770525C6.48526 0.344975 6.14031 0 5.71475 0H3.53158Z" fill="white"/>
<path fill-rule="evenodd" clip-rule="evenodd" d="M1.15578 3.46741C0.994167 3.46741 0.839944 3.53508 0.730514 3.654C0.62109 3.77293 0.566455 3.93224 0.57988 4.0933L1.0253 9.43834C1.12514 10.6364 2.12667 11.5579 3.32889 11.5579H5.9174C7.11966 11.5579 8.12115 10.6364 8.22101 9.43834L8.6664 4.0933C8.67986 3.93224 8.62519 3.77293 8.5158 3.654C8.40634 3.53508 8.25216 3.46741 8.09052 3.46741H1.15578Z" fill="white"/>
</svg>
