<svg width="13" height="13" viewBox="0 0 13 13" fill="none" xmlns="http://www.w3.org/2000/svg">
<path d="M9.52259 6.01391C9.24543 6.01391 9.0214 6.23844 9.0214 6.51509V10.5246C9.0214 10.8008 8.79687 11.0258 8.52021 11.0258H1.50357C1.22691 11.0258 1.00238 10.8008 1.00238 10.5246V3.50796C1.00238 3.23181 1.22691 3.00677 1.50357 3.00677H5.51308C5.79024 3.00677 6.01427 2.78224 6.01427 2.50558C6.01427 2.22893 5.79024 2.00439 5.51308 2.00439H1.50357C0.6746 2.00439 0 2.67899 0 3.50796V10.5246C0 11.3536 0.6746 12.0282 1.50357 12.0282H8.52021C9.34918 12.0282 10.0238 11.3536 10.0238 10.5246V6.51509C10.0238 6.23794 9.79975 6.01391 9.52259 6.01391Z" fill="white"/>
<path d="M4.69913 5.55745C4.66405 5.59253 4.64049 5.63714 4.63047 5.68525L4.27613 7.45745C4.25959 7.53965 4.28565 7.62435 4.34479 7.68399C4.3924 7.7316 4.45656 7.75716 4.52221 7.75716C4.53825 7.75716 4.55479 7.75566 4.57133 7.75215L6.34303 7.39781C6.39215 7.38779 6.43675 7.36423 6.47134 7.32915L10.4367 3.36374L8.66504 1.59204L4.69913 5.55745Z" fill="white"/>
<path d="M11.6616 0.366494C11.173 -0.122165 10.3781 -0.122165 9.88993 0.366494L9.19629 1.06014L10.968 2.83184L11.6616 2.1382C11.8982 1.90214 12.0285 1.58739 12.0285 1.2526C12.0285 0.917802 11.8982 0.603056 11.6616 0.366494Z" fill="white"/>
</svg>
