<svg width="12" height="10" viewBox="0 0 12 10" fill="none" xmlns="http://www.w3.org/2000/svg">
<path d="M6.7888 0.0623629C6.53449 0.175141 6.36864 0.429444 6.36864 0.708073V2.12333H3.89195C1.74253 2.12333 0 3.86586 0 6.01528C0 8.52072 1.80224 9.63965 2.21576 9.86521C2.27104 9.89617 2.33296 9.90722 2.39488 9.90722C2.63591 9.90722 2.83051 9.71042 2.83051 9.47159C2.83051 9.30574 2.73542 9.15316 2.6138 9.04038C2.40593 8.84357 2.12288 8.45659 2.12288 7.78434C2.12288 6.61234 3.07376 5.66146 4.24576 5.66146H6.36864V7.07672C6.36864 7.35534 6.53228 7.60965 6.7888 7.72243C7.04531 7.8352 7.34163 7.78877 7.5495 7.60301L11.0876 4.41869C11.2358 4.2838 11.322 4.09363 11.322 3.89239C11.322 3.69116 11.238 3.50099 11.0876 3.3661L7.5495 0.181775C7.34163 -0.00618848 7.0431 -0.0526265 6.7888 0.0623629Z" fill="white"/>
</svg>
