<svg width="11" height="3" viewBox="0 0 11 3" fill="none" xmlns="http://www.w3.org/2000/svg">
<path d="M0 1.3125C0 0.964403 0.138281 0.630564 0.384422 0.384422C0.630564 0.138281 0.964403 0 1.3125 0C1.6606 0 1.99444 0.138281 2.24058 0.384422C2.48672 0.630564 2.625 0.964403 2.625 1.3125C2.625 1.6606 2.48672 1.99444 2.24058 2.24058C1.99444 2.48672 1.6606 2.625 1.3125 2.625C0.964403 2.625 0.630564 2.48672 0.384422 2.24058C0.138281 1.99444 0 1.6606 0 1.3125ZM3.75 1.3125C3.75 0.964403 3.88828 0.630564 4.13442 0.384422C4.38056 0.138281 4.7144 0 5.0625 0C5.4106 0 5.74444 0.138281 5.99058 0.384422C6.23672 0.630564 6.375 0.964403 6.375 1.3125C6.375 1.6606 6.23672 1.99444 5.99058 2.24058C5.74444 2.48672 5.4106 2.625 5.0625 2.625C4.7144 2.625 4.38056 2.48672 4.13442 2.24058C3.88828 1.99444 3.75 1.6606 3.75 1.3125ZM8.8125 0C9.1606 0 9.49444 0.138281 9.74058 0.384422C9.98672 0.630564 10.125 0.964403 10.125 1.3125C10.125 1.6606 9.98672 1.99444 9.74058 2.24058C9.49444 2.48672 9.1606 2.625 8.8125 2.625C8.4644 2.625 8.13056 2.48672 7.88442 2.24058C7.63828 1.99444 7.5 1.6606 7.5 1.3125C7.5 0.964403 7.63828 0.630564 7.88442 0.384422C8.13056 0.138281 8.4644 0 8.8125 0Z" fill="#5A5A5A"/>
</svg>
