<svg width="14" height="11" viewBox="0 0 14 11" fill="none" xmlns="http://www.w3.org/2000/svg">
<path d="M6.74941 0C4.85566 0 3.33926 0.8625 2.23535 1.88906C1.13848 2.90625 0.404883 4.125 0.0580078 4.96172C-0.0193359 5.14687 -0.0193359 5.35312 0.0580078 5.53828C0.404883 6.375 1.13848 7.59375 2.23535 8.61094C3.33926 9.6375 4.85566 10.5 6.74941 10.5C8.64316 10.5 10.1596 9.6375 11.2635 8.61094C12.3604 7.59141 13.0939 6.375 13.4432 5.53828C13.5205 5.35312 13.5205 5.14687 13.4432 4.96172C13.0939 4.125 12.3604 2.90625 11.2635 1.88906C10.1596 0.8625 8.64316 0 6.74941 0ZM3.37441 5.25C3.37441 4.35489 3.72999 3.49645 4.36293 2.86351C4.99586 2.23058 5.85431 1.875 6.74941 1.875C7.64452 1.875 8.50296 2.23058 9.1359 2.86351C9.76883 3.49645 10.1244 4.35489 10.1244 5.25C10.1244 6.14511 9.76883 7.00355 9.1359 7.63649C8.50296 8.26942 7.64452 8.625 6.74941 8.625C5.85431 8.625 4.99586 8.26942 4.36293 7.63649C3.72999 7.00355 3.37441 6.14511 3.37441 5.25ZM6.74941 3.75C6.74941 4.57734 6.07676 5.25 5.24941 5.25C5.08301 5.25 4.92363 5.22187 4.77363 5.17266C4.64473 5.13047 4.49473 5.21016 4.49941 5.34609C4.50645 5.50781 4.52988 5.66953 4.57441 5.83125C4.89551 7.03125 6.13066 7.74375 7.33066 7.42266C8.53066 7.10156 9.24316 5.86641 8.92207 4.66641C8.66191 3.69375 7.80176 3.03984 6.84551 3C6.70957 2.99531 6.62988 3.14297 6.67207 3.27422C6.72129 3.42422 6.74941 3.58359 6.74941 3.75Z" fill="#B0B0B0"/>
</svg>
