<svg width="20" height="20" viewBox="0 0 20 20" fill="none" xmlns="http://www.w3.org/2000/svg">
<path d="M10 4.16667C10.4602 4.16667 10.8333 4.53976 10.8333 5V9.16667H15C15.4602 9.16667 15.8333 9.53976 15.8333 10C15.8333 10.4602 15.4602 10.8333 15 10.8333H10.8333V15C10.8333 15.4602 10.4602 15.8333 10 15.8333C9.53976 15.8333 9.16667 15.4602 9.16667 15V10.8333H5C4.53976 10.8333 4.16667 10.4602 4.16667 10C4.16667 9.53976 4.53976 9.16667 5 9.16667H9.16667V5C9.16667 4.53976 9.53976 4.16667 10 4.16667Z" fill="#B0B0B0"/>
</svg>

