<svg width="22" height="20" viewBox="0 0 22 20" fill="none" xmlns="http://www.w3.org/2000/svg">
<path d="M10.6064 6.74634H10.6074C13.2289 6.74332 15.8494 6.81314 18.4688 6.9563V6.95728C19.5348 7.02161 20.4727 7.93558 20.5312 8.88794C20.6999 11.8632 20.6109 14.0188 20.2539 16.9963C20.1927 17.4767 19.9239 17.9724 19.5156 18.3665C19.1082 18.7595 18.6041 19.0104 18.124 19.0579C15.6224 19.2874 13.1165 19.4026 10.6064 19.4026C8.09634 19.4026 5.58954 19.2874 3.08789 19.0579C2.60775 19.0092 2.10415 18.758 1.69727 18.3655C1.28901 17.9716 1.02021 17.4766 0.958984 16.9963C0.602053 14.0191 0.512963 11.8636 0.683594 8.88892C0.743757 7.93527 1.6809 7.02188 2.74512 6.95923L2.74414 6.95825C5.36394 6.81665 7.98474 6.74634 10.6064 6.74634Z" stroke="#B0B0B0" stroke-width="1.2"/>
<path d="M6.396 0.601562H6.48193C6.5642 0.606772 6.64545 0.62652 6.72119 0.660156C6.8222 0.705077 6.91154 0.773337 6.98096 0.859375L6.98291 0.863281C7.63947 1.66472 8.32579 2.48147 9.03271 3.30566H9.03369C9.17987 3.47558 9.36112 3.61184 9.56494 3.70508C9.76876 3.7983 9.99023 3.84622 10.2144 3.8457C12.9664 3.83745 15.7177 3.90755 18.4673 4.05762V4.05859C19.1328 4.09875 19.7468 4.46908 20.1294 4.97266C19.6554 4.76587 19.1425 4.63561 18.6089 4.60352L18.5903 4.60254H18.5786C15.9593 4.45973 13.2764 4.38672 10.6069 4.38672C7.93788 4.38672 5.25482 4.45681 2.63525 4.59961H2.62256L2.604 4.60156C1.94503 4.64135 1.3169 4.82952 0.755371 5.12891C0.809729 4.33684 0.877019 3.58626 0.95752 2.89844C1.01867 2.41803 1.28777 1.92302 1.6958 1.5293C2.10372 1.13584 2.60851 0.883834 3.08936 0.836914C4.19058 0.73584 5.29288 0.658006 6.396 0.601562Z" stroke="#B0B0B0" stroke-width="1.2"/>
</svg>
