<svg width="22" height="20" viewBox="0 0 22 20" fill="none" xmlns="http://www.w3.org/2000/svg">
<path d="M10.6065 6.14682C7.9734 6.14682 5.34123 6.21795 2.71003 6.3602C1.37136 6.43892 0.165689 7.56752 0.084897 8.8515C-0.0882886 11.8682 0.0028617 14.0603 0.364148 17.0724C0.52739 18.3531 1.75502 19.5298 3.03402 19.6557C5.55391 19.8869 8.07809 20.0025 10.6065 20.0025C13.135 20.0025 15.6592 19.8869 18.1791 19.6557C19.4581 19.5314 20.6857 18.3531 20.8489 17.0724C21.2102 14.0603 21.3014 11.8682 21.1303 8.8515C21.0515 7.56711 19.8438 6.43892 18.5051 6.35813C15.8734 6.21422 13.2405 6.14378 10.6065 6.14682Z" fill="#7ACBFF"/>
<path d="M2.64053 5.20009H2.64716C5.26193 5.05715 7.94092 4.98671 10.6066 4.98671C13.2724 4.98671 15.9514 5.05922 18.5661 5.20216H18.5728C19.5584 5.26141 20.4741 5.70846 21.1507 6.37841C21.144 6.23257 21.1367 6.09087 21.1287 5.95332C21.05 4.66893 19.8443 3.54074 18.5032 3.45994C15.741 3.30913 12.9777 3.23787 10.213 3.24616C10.0755 3.24648 9.9395 3.21702 9.81441 3.15981C9.68933 3.10259 9.57811 3.01897 9.4884 2.9147C8.78406 2.09352 8.10084 1.28021 7.44746 0.482645C7.31817 0.322397 7.15258 0.19523 6.9644 0.111657C6.77622 0.0280846 6.57084 -0.00949208 6.36526 0.00203432C5.25323 0.0589342 4.14216 0.138345 3.03206 0.240268C1.75306 0.364564 0.525427 1.54206 0.3626 2.82314C0.238304 3.88379 0.142596 5.08739 0.0825195 6.35935C0.756617 5.69768 1.66439 5.25892 2.64053 5.20009Z" fill="#7ACBFF"/>
</svg>
