<svg width="20" height="20" viewBox="0 0 20 20" fill="none" xmlns="http://www.w3.org/2000/svg">
<path d="M0.666667 6.66667C0.489856 6.66667 0.320286 6.59643 0.195262 6.4714C0.0702379 6.34638 0 6.17681 0 6V2C0 1.46957 0.210714 0.960859 0.585786 0.585786C0.960859 0.210714 1.46957 0 2 0H6C6.17681 0 6.34638 0.0702379 6.4714 0.195262C6.59643 0.320286 6.66667 0.489856 6.66667 0.666667C6.66667 0.843478 6.59643 1.01305 6.4714 1.13807C6.34638 1.2631 6.17681 1.33333 6 1.33333H2C1.82319 1.33333 1.65362 1.40357 1.5286 1.5286C1.40357 1.65362 1.33333 1.82319 1.33333 2V6C1.33333 6.17681 1.2631 6.34638 1.13807 6.4714C1.01305 6.59643 0.843478 6.66667 0.666667 6.66667Z" fill="#7ACBFF"/>
<path d="M6 20H2C1.46957 20 0.960859 19.7893 0.585786 19.4143C0.210714 19.0392 0 18.5305 0 18V14C0 13.8232 0.0702379 13.6537 0.195262 13.5286C0.320286 13.4036 0.489856 13.3334 0.666667 13.3334C0.843478 13.3334 1.01305 13.4036 1.13807 13.5286C1.2631 13.6537 1.33333 13.8232 1.33333 14V18C1.33333 18.1769 1.40357 18.3464 1.5286 18.4714C1.65362 18.5965 1.82319 18.6667 2 18.6667H6C6.17681 18.6667 6.34638 18.7369 6.4714 18.862C6.59643 18.987 6.66667 19.1566 6.66667 19.3334C6.66667 19.5102 6.59643 19.6798 6.4714 19.8048C6.34638 19.9298 6.17681 20 6 20Z" fill="#7ACBFF"/>
<path d="M19.3335 6.66667C19.1567 6.66667 18.9871 6.59643 18.8621 6.4714C18.7371 6.34638 18.6668 6.17681 18.6668 6V2C18.6668 1.82319 18.5966 1.65362 18.4716 1.5286C18.3465 1.40357 18.177 1.33333 18.0002 1.33333H14.0002C13.8234 1.33333 13.6538 1.2631 13.5288 1.13807C13.4037 1.01305 13.3335 0.843478 13.3335 0.666667C13.3335 0.489856 13.4037 0.320286 13.5288 0.195262C13.6538 0.0702379 13.8234 0 14.0002 0H18.0002C18.5306 0 19.0393 0.210714 19.4144 0.585786C19.7894 0.960859 20.0002 1.46957 20.0002 2V6C20.0002 6.17681 19.9299 6.34638 19.8049 6.4714C19.6799 6.59643 19.5103 6.66667 19.3335 6.66667Z" fill="#7ACBFF"/>
<path d="M18.0002 20H14.0002C13.8234 20 13.6538 19.9298 13.5288 19.8048C13.4037 19.6798 13.3335 19.5102 13.3335 19.3334C13.3335 19.1566 13.4037 18.987 13.5288 18.862C13.6538 18.7369 13.8234 18.6667 14.0002 18.6667H18.0002C18.177 18.6667 18.3465 18.5965 18.4716 18.4714C18.5966 18.3464 18.6668 18.1769 18.6668 18V14C18.6668 13.8232 18.7371 13.6537 18.8621 13.5286C18.9871 13.4036 19.1567 13.3334 19.3335 13.3334C19.5103 13.3334 19.6799 13.4036 19.8049 13.5286C19.9299 13.6537 20.0002 13.8232 20.0002 14V18C20.0002 18.5305 19.7894 19.0392 19.4144 19.4143C19.0393 19.7893 18.5306 20 18.0002 20Z" fill="#7ACBFF"/>
<path d="M13.3332 3.33337H6.6665C6.13607 3.33337 5.62736 3.54409 5.25229 3.91916C4.87722 4.29423 4.6665 4.80294 4.6665 5.33337V14.6667C4.6665 15.1971 4.87722 15.7058 5.25229 16.0809C5.62736 16.456 6.13607 16.6667 6.6665 16.6667H13.3332C13.8636 16.6667 14.3723 16.456 14.7474 16.0809C15.1225 15.7058 15.3332 15.1971 15.3332 14.6667V5.33337C15.3332 4.80294 15.1225 4.29423 14.7474 3.91916C14.3723 3.54409 13.8636 3.33337 13.3332 3.33337ZM11.9998 13.3334H7.99984C7.82303 13.3334 7.65346 13.2631 7.52843 13.1381C7.40341 13.0131 7.33317 12.8435 7.33317 12.6667C7.33317 12.4899 7.40341 12.3203 7.52843 12.1953C7.65346 12.0703 7.82303 12 7.99984 12H11.9998C12.1766 12 12.3462 12.0703 12.4712 12.1953C12.5963 12.3203 12.6665 12.4899 12.6665 12.6667C12.6665 12.8435 12.5963 13.0131 12.4712 13.1381C12.3462 13.2631 12.1766 13.3334 11.9998 13.3334ZM11.9998 10.6667H7.99984C7.82303 10.6667 7.65346 10.5965 7.52843 10.4714C7.40341 10.3464 7.33317 10.1769 7.33317 10C7.33317 9.82323 7.40341 9.65366 7.52843 9.52864C7.65346 9.40361 7.82303 9.33337 7.99984 9.33337H11.9998C12.1766 9.33337 12.3462 9.40361 12.4712 9.52864C12.5963 9.65366 12.6665 9.82323 12.6665 10C12.6665 10.1769 12.5963 10.3464 12.4712 10.4714C12.3462 10.5965 12.1766 10.6667 11.9998 10.6667ZM11.9998 8.00004H7.99984C7.82303 8.00004 7.65346 7.9298 7.52843 7.80478C7.40341 7.67975 7.33317 7.51018 7.33317 7.33337C7.33317 7.15656 7.40341 6.98699 7.52843 6.86197C7.65346 6.73695 7.82303 6.66671 7.99984 6.66671H11.9998C12.1766 6.66671 12.3462 6.73695 12.4712 6.86197C12.5963 6.98699 12.6665 7.15656 12.6665 7.33337C12.6665 7.51018 12.5963 7.67975 12.4712 7.80478C12.3462 7.9298 12.1766 8.00004 11.9998 8.00004Z" fill="#7ACBFF"/>
</svg>
