<svg width="20" height="20" viewBox="0 0 20 20" fill="none" xmlns="http://www.w3.org/2000/svg">
<path d="M0.666667 6.66667C0.489856 6.66667 0.320286 6.59643 0.195262 6.4714C0.0702379 6.34638 0 6.17681 0 6V2C0 1.46957 0.210714 0.960859 0.585786 0.585786C0.960859 0.210714 1.46957 0 2 0H6C6.17681 0 6.34638 0.0702379 6.4714 0.195262C6.59643 0.320286 6.66667 0.489856 6.66667 0.666667C6.66667 0.843478 6.59643 1.01305 6.4714 1.13807C6.34638 1.2631 6.17681 1.33333 6 1.33333H2C1.82319 1.33333 1.65362 1.40357 1.5286 1.5286C1.40357 1.65362 1.33333 1.82319 1.33333 2V6C1.33333 6.17681 1.2631 6.34638 1.13807 6.4714C1.01305 6.59643 0.843478 6.66667 0.666667 6.66667Z" fill="#B0B0B0"/>
<path d="M6 20H2C1.46957 20 0.960859 19.7893 0.585786 19.4143C0.210714 19.0392 0 18.5305 0 18V14C0 13.8232 0.0702379 13.6537 0.195262 13.5286C0.320286 13.4036 0.489856 13.3334 0.666667 13.3334C0.843478 13.3334 1.01305 13.4036 1.13807 13.5286C1.2631 13.6537 1.33333 13.8232 1.33333 14V18C1.33333 18.1769 1.40357 18.3464 1.5286 18.4714C1.65362 18.5965 1.82319 18.6667 2 18.6667H6C6.17681 18.6667 6.34638 18.7369 6.4714 18.862C6.59643 18.987 6.66667 19.1566 6.66667 19.3334C6.66667 19.5102 6.59643 19.6798 6.4714 19.8048C6.34638 19.9298 6.17681 20 6 20Z" fill="#B0B0B0"/>
<path d="M19.3335 6.66667C19.1567 6.66667 18.9871 6.59643 18.8621 6.4714C18.7371 6.34638 18.6668 6.17681 18.6668 6V2C18.6668 1.82319 18.5966 1.65362 18.4716 1.5286C18.3465 1.40357 18.177 1.33333 18.0002 1.33333H14.0002C13.8234 1.33333 13.6538 1.2631 13.5288 1.13807C13.4037 1.01305 13.3335 0.843478 13.3335 0.666667C13.3335 0.489856 13.4037 0.320286 13.5288 0.195262C13.6538 0.0702379 13.8234 0 14.0002 0H18.0002C18.5306 0 19.0393 0.210714 19.4144 0.585786C19.7894 0.960859 20.0002 1.46957 20.0002 2V6C20.0002 6.17681 19.9299 6.34638 19.8049 6.4714C19.6799 6.59643 19.5103 6.66667 19.3335 6.66667Z" fill="#B0B0B0"/>
<path d="M18.0002 20H14.0002C13.8234 20 13.6538 19.9298 13.5288 19.8048C13.4037 19.6798 13.3335 19.5102 13.3335 19.3334C13.3335 19.1566 13.4037 18.987 13.5288 18.862C13.6538 18.7369 13.8234 18.6667 14.0002 18.6667H18.0002C18.177 18.6667 18.3465 18.5965 18.4716 18.4714C18.5966 18.3464 18.6668 18.1769 18.6668 18V14C18.6668 13.8232 18.7371 13.6537 18.8621 13.5286C18.9871 13.4036 19.1567 13.3334 19.3335 13.3334C19.5103 13.3334 19.6799 13.4036 19.8049 13.5286C19.9299 13.6537 20.0002 13.8232 20.0002 14V18C20.0002 18.5305 19.7894 19.0392 19.4144 19.4143C19.0393 19.7893 18.5306 20 18.0002 20Z" fill="#B0B0B0"/>
<path d="M13.3335 2.73376C14.0228 2.73385 14.6839 3.00719 15.1714 3.49451C15.659 3.9821 15.9331 4.64381 15.9331 5.33337V14.6664C15.9331 15.3559 15.659 16.0177 15.1714 16.5052C14.6839 16.9927 14.0229 17.2669 13.3335 17.267H6.6665C5.97694 17.267 5.31523 16.9928 4.82764 16.5052C4.34014 16.0177 4.06689 15.3559 4.06689 14.6664V5.33337C4.06689 4.64381 4.34004 3.9821 4.82764 3.49451C5.31523 3.00691 5.97694 2.73376 6.6665 2.73376H13.3335ZM7.99951 12.6C7.98195 12.6001 7.96506 12.6071 7.95264 12.6195C7.94021 12.6319 7.93319 12.6488 7.93311 12.6664C7.93311 12.6841 7.94013 12.7017 7.95264 12.7142C7.96505 12.7266 7.98202 12.7337 7.99951 12.7338H11.9995C12.0172 12.7338 12.0349 12.7267 12.0474 12.7142C12.0599 12.7017 12.0669 12.6841 12.0669 12.6664C12.0668 12.6489 12.0597 12.6319 12.0474 12.6195C12.0349 12.607 12.0172 12.6 11.9995 12.6H7.99951ZM7.99951 9.93298C7.98202 9.93307 7.96505 9.94019 7.95264 9.95251C7.94013 9.96502 7.93311 9.98269 7.93311 10.0004C7.93319 10.0179 7.94021 10.0348 7.95264 10.0472C7.96506 10.0597 7.98195 10.0667 7.99951 10.0668H11.9995C12.0172 10.0668 12.0349 10.0597 12.0474 10.0472C12.0597 10.0348 12.0668 10.0179 12.0669 10.0004C12.0669 9.98268 12.0599 9.96502 12.0474 9.95251C12.0349 9.94001 12.0172 9.93298 11.9995 9.93298H7.99951ZM7.99951 7.26697C7.98195 7.26705 7.96506 7.27407 7.95264 7.2865C7.94024 7.29899 7.93311 7.31577 7.93311 7.33337C7.93311 7.35098 7.94024 7.36776 7.95264 7.38025C7.96506 7.39267 7.98195 7.39969 7.99951 7.39978H11.9995C12.0172 7.39978 12.0349 7.39275 12.0474 7.38025C12.0597 7.36778 12.0669 7.3509 12.0669 7.33337C12.0669 7.31584 12.0597 7.29897 12.0474 7.2865C12.0349 7.274 12.0172 7.26697 11.9995 7.26697H7.99951Z" stroke="#B0B0B0" stroke-width="1.2"/>
</svg>
