<svg width="24" height="19" viewBox="0 0 24 19" fill="none" xmlns="http://www.w3.org/2000/svg">
<path d="M21.9521 9.64278C24.1592 7.43575 24.1592 3.86153 21.9521 1.6545C19.999 -0.298626 16.9209 -0.552532 14.6748 1.05294L14.6123 1.09591C14.0498 1.49825 13.9209 2.2795 14.3232 2.83809C14.7256 3.39669 15.5068 3.5295 16.0654 3.12716L16.1279 3.08419C17.3818 2.18966 19.0967 2.33028 20.1826 3.42012C21.4131 4.65059 21.4131 6.64278 20.1826 7.87325L15.7998 12.2639C14.5693 13.4943 12.5771 13.4943 11.3467 12.2639C10.2568 11.174 10.1162 9.45919 11.0107 8.20919L11.0537 8.14669C11.4561 7.58419 11.3232 6.80294 10.7646 6.4045C10.2061 6.00606 9.4209 6.13497 9.02246 6.69356L8.97949 6.75606C7.37012 8.99825 7.62402 12.0764 9.57715 14.0295C11.7842 16.2365 15.3584 16.2365 17.5654 14.0295L21.9521 9.64278ZM1.65527 8.72872C-0.551758 10.9357 -0.551758 14.51 1.65527 16.717C3.6084 18.6701 6.68652 18.924 8.93262 17.3186L8.99512 17.2756C9.55762 16.8732 9.68652 16.092 9.28418 15.5334C8.88184 14.9748 8.10059 14.842 7.54199 15.2443L7.47949 15.2873C6.22559 16.1818 4.51074 16.0412 3.4248 14.9514C2.19434 13.717 2.19434 11.7248 3.4248 10.4943L7.80762 6.10762C9.03809 4.87716 11.0303 4.87716 12.2607 6.10762C13.3506 7.19747 13.4912 8.91231 12.5967 10.1662L12.5537 10.2287C12.1514 10.7912 12.2842 11.5725 12.8428 11.9709C13.4014 12.3693 14.1865 12.2404 14.585 11.6818L14.6279 11.6193C16.2373 9.37325 15.9834 6.29512 14.0303 4.342C11.8232 2.13497 8.24902 2.13497 6.04199 4.342L1.65527 8.72872Z" fill="white"/>
</svg>
