<svg width="14" height="18" viewBox="0 0 14 18" fill="none" xmlns="http://www.w3.org/2000/svg">
<path d="M11.1601 1.56792C11.3675 1.08628 11.2128 0.52378 10.7874 0.214405C10.362 -0.09497 9.78193 -0.066845 9.38466 0.277686L0.38466 8.15269C0.033098 8.46206 -0.0934646 8.95776 0.0717698 9.3937C0.237004 9.82964 0.658879 10.125 1.12646 10.125H5.04638L2.34286 16.432C2.13544 16.9136 2.29013 17.4761 2.71552 17.7855C3.14091 18.0949 3.72099 18.0667 4.11825 17.7222L13.1183 9.84722C13.4698 9.53784 13.5964 9.04214 13.4311 8.6062C13.2659 8.17026 12.8476 7.87847 12.3765 7.87847H8.45654L11.1601 1.56792Z" fill="#5A5A5A"/>
</svg>
